# xmcd
# 
# Track frame offsets:
#     150
#     19470
#     34571
#     48935
#     63637
#     79970
#     98669
# 
# Disc length: 1499
# 
# Revision: 0
# Processed by: cddbd v1.5.2PL0 Copyright (c) Steve Scherf et al.
# Submitted via: fre:ac v1.0.17
# 
DISCID=5405d907
DTITLE=Wheesung 휘성 - Transformation (4th Mini Album)
DYEAR=2016
DGENRE=K-Pop
TTITLE0=Marry Me feat. 상추 of 마이티마우스
TTITLE1=제껴 feat. LE of EXID
TTITLE2=노래 좀 꺼줘요
TTITLE3=얼마짜리 사랑 Duet 범키, feat. 제시 of 락키제이
TTITLE4=친구로 남아줄게 Duet 긱스
TTITLE5=아무일 없었다는 듯 Duet 알리
TTITLE6=Kiss Duet 에일리
EXTD=YMC Entertainment\nkt Music Corp., KOREA\ngenie
EXTT0=
EXTT1=
EXTT2=
EXTT3=
EXTT4=
EXTT5=
EXTT6=
PLAYORDER=
